# xmcd CD database file
#
# Track frame offsets:
#	150
#	7332
#	15007
#	23190
#	30910
#	42925
#	51880
#	56635
#	61822
#	69932
#	80307
#	88922
#	95735
#	103272
#	111495
#	124402
#	136732
#	151862
#	166997
#	171410
#	185900
#
# Disc length: 2680 seconds
#
# Revision: 1
# Processed by: cddbd v1.5.2PL0 Copyright (c) Steve Scherf et al.
# Submitted via: CDex 1.70beta3
#
DISCID=1a0a7615
DTITLE=天野正道 - てなもんやボイジャーズ　O.S.T
DYEAR=1999
DGENRE=アニメ
TTITLE0=宮川泰/ゲバゲバ90分！のテーマ
TTITLE1=宇宙要塞
TTITLE2=警察艦隊
TTITLE3=教師生活25日
TTITLE4=体育少女
TTITLE5=旅の仲間
TTITLE6=宇宙の○暴
TTITLE7=急げや急げ
TTITLE8=ヒットマン
TTITLE9=ブチ殺しちゃるんど！！
TTITLE10=邪王プレート
TTITLE11=銀河鉄道強奪
TTITLE12=お魚になったワタシ…
TTITLE13=治外法権
TTITLE14=邪王会
TTITLE15=焼津のまあこ
TTITLE16=脱獄
TTITLE17=強行突破
TTITLE18=広島県警の横山じゃ！
TTITLE19=理機士戦闘
TTITLE20=水木一郎/誰かが風の中で
EXTD=YEAR: 1999
EXTT0=
EXTT1=
EXTT2=
EXTT3=
EXTT4=
EXTT5=
EXTT6=
EXTT7=
EXTT8=
EXTT9=
EXTT10=
EXTT11=
EXTT12=
EXTT13=
EXTT14=
EXTT15=
EXTT16=
EXTT17=
EXTT18=
EXTT19=
EXTT20=
PLAYORDER=
